<?xml version="1.0" standalone="no"?>
<!DOCTYPE svg PUBLIC "-//W3C//DTD SVG 20010904//EN"
 "http://www.w3.org/TR/2001/REC-SVG-20010904/DTD/svg10.dtd">
<svg version="1.0" xmlns="http://www.w3.org/2000/svg"
 width="1424.000000pt" height="1424.000000pt" viewBox="0 0 1424.000000 1424.000000"
 preserveAspectRatio="xMidYMid meet">
<metadata>
Created by potrace 1.14, written by Peter Selinger 2001-2017
</metadata>
<g transform="translate(0.000000,1424.000000) scale(0.100000,-0.100000)"
fill="#000000" stroke="none">
<path d="M0 7115 l0 -4785 1148 1 c631 0 1174 4 1207 9 33 4 89 11 125 15 64
6 112 12 160 21 14 2 45 6 70 9 25 3 52 8 60 10 13 4 30 7 105 20 65 12 96 18
150 31 33 8 71 17 85 20 14 2 36 8 50 13 27 10 106 31 130 35 8 1 25 8 38 14
12 7 22 10 22 8 0 -3 18 1 40 9 22 8 42 15 45 15 3 0 12 3 20 5 8 3 22 7 30
10 8 2 17 5 20 5 5 0 66 22 110 40 23 9 100 39 130 50 11 4 22 7 25 7 3 0 16
6 30 13 14 8 28 15 33 16 4 1 9 3 12 4 3 1 8 3 13 4 43 12 443 215 462 236 3
3 11 6 18 8 22 4 334 202 370 235 12 11 22 17 22 14 0 -4 9 1 19 10 25 23 34
29 101 78 30 21 63 47 73 57 10 10 21 18 25 18 4 0 21 14 39 30 18 17 34 30
36 30 5 0 94 78 139 122 15 14 28 24 28 21 0 -10 318 314 385 391 33 38 65 74
70 80 6 6 26 31 45 56 19 25 37 47 40 50 6 6 63 79 135 175 17 22 35 47 40 56
6 10 40 61 76 116 66 98 132 205 184 298 61 110 103 195 97 195 -4 0 -2 4 4 8
27 17 238 525 259 622 2 8 10 35 18 60 8 25 20 65 27 90 7 25 15 52 18 60 10
28 14 45 15 68 0 12 5 22 9 22 4 0 7 3 6 8 -1 4 4 32 10 62 17 77 22 101 28
130 3 14 9 44 15 68 5 23 12 59 15 80 3 20 9 62 14 92 5 30 12 78 15 105 3 28
7 61 10 75 2 14 7 57 9 95 3 39 6 70 6 70 12 0 19 603 9 718 -16 189 -25 274
-33 332 -2 17 -7 50 -10 75 -6 41 -16 101 -31 190 -4 19 -13 61 -20 92 -7 31
-10 59 -7 62 3 3 1 6 -4 6 -5 0 -10 8 -10 18 -1 9 -4 28 -7 42 -13 62 -19 86
-24 100 -3 8 -8 24 -10 35 -2 10 -13 49 -24 85 -11 36 -22 72 -24 80 -2 8 -15
48 -29 88 -14 39 -23 72 -20 72 3 0 -2 12 -10 28 -8 15 -40 92 -72 172 -31 80
-71 175 -89 212 -18 36 -31 68 -29 71 3 2 -2 10 -11 17 -8 7 -15 20 -15 29 0
9 -4 21 -9 27 -5 5 -33 54 -62 109 -76 146 -289 490 -318 515 -3 3 -22 28 -41
55 -19 28 -40 57 -47 65 -6 8 -42 53 -80 100 -37 47 -72 90 -78 96 -5 6 -35
40 -65 75 -100 115 -231 249 -346 355 -109 101 -207 185 -248 214 -12 8 -28
21 -36 29 -31 30 -353 261 -364 261 -2 0 -35 20 -73 45 -37 25 -73 45 -80 45
-6 0 -13 4 -15 8 -3 9 -93 60 -203 116 -33 17 -63 35 -66 39 -3 4 -16 9 -27
10 -12 1 -22 4 -22 7 0 3 -15 11 -32 19 -18 8 -60 27 -93 42 -105 47 -160 71
-170 73 -13 4 -43 15 -80 31 -16 7 -41 16 -55 20 -14 4 -29 11 -35 15 -5 5
-30 13 -55 20 -25 6 -61 18 -80 27 -19 9 -44 18 -55 19 -11 2 -39 10 -63 19
-24 8 -53 17 -65 19 -12 3 -23 5 -24 7 -2 1 -6 2 -10 3 -5 1 -14 5 -20 9 -7 5
-13 6 -13 3 0 -2 -15 0 -32 5 -18 6 -41 12 -50 15 -10 2 -28 7 -40 10 -50 13
-119 28 -173 39 -22 5 -42 9 -45 10 -26 6 -92 18 -120 22 -55 7 -75 10 -75 13
0 1 -11 3 -25 5 -14 1 -47 6 -75 9 -27 4 -72 9 -100 12 -27 2 -72 7 -100 10
-27 4 -70 9 -95 11 -25 3 -555 7 -1177 10 l-1133 4 0 -4786z"/>
<path d="M7465 7115 l0 -4785 1082 0 1083 0 0 213 c0 116 1 727 1 1357 l0
1145 59 -63 c33 -35 60 -65 60 -67 0 -2 21 -26 48 -53 60 -63 146 -161 150
-173 2 -5 8 -7 13 -3 5 3 9 0 9 -5 0 -11 21 -37 90 -110 19 -21 64 -71 100
-111 36 -40 76 -85 90 -100 14 -15 34 -38 45 -52 16 -18 163 -181 220 -244 6
-6 39 -44 75 -84 36 -40 82 -90 103 -112 20 -22 37 -41 37 -43 0 -2 15 -19 33
-38 61 -65 142 -155 192 -212 28 -32 66 -74 85 -95 19 -20 58 -63 85 -95 28
-31 66 -74 85 -95 82 -88 110 -121 110 -130 0 -6 7 -10 15 -10 8 0 15 -3 15
-7 0 -5 15 -24 33 -44 17 -20 61 -69 97 -109 36 -40 83 -93 105 -116 22 -23
60 -66 84 -94 25 -29 61 -69 80 -89 20 -21 63 -69 96 -106 33 -38 69 -79 80
-91 11 -12 49 -54 84 -93 l64 -71 1081 0 c1059 1 1081 1 1059 19 -13 11 -23
23 -23 28 0 4 -22 31 -48 59 -27 29 -61 69 -78 89 -16 20 -38 47 -49 59 -11
13 -35 39 -52 59 -18 20 -33 41 -33 47 0 5 -4 10 -8 10 -5 0 -30 27 -58 60
-27 34 -60 73 -74 88 -14 15 -45 52 -70 82 -25 30 -57 68 -72 84 -15 17 -57
67 -94 111 -56 67 -140 166 -179 209 -5 6 -32 38 -60 71 -47 57 -88 104 -110
129 -5 6 -32 38 -60 71 -27 33 -57 67 -65 75 -8 9 -31 35 -50 59 -41 51 -61
74 -103 122 -87 100 -139 161 -167 197 -8 11 -40 48 -72 83 -31 35 -67 78 -79
94 -13 17 -26 32 -29 35 -3 3 -44 50 -90 105 -47 55 -89 105 -95 111 -5 6 -27
31 -47 55 -21 24 -49 58 -64 74 -14 17 -39 47 -57 68 -54 66 -67 81 -103 119
-19 20 -34 39 -34 42 0 3 -15 21 -32 39 -18 19 -44 48 -57 66 -14 17 -36 44
-50 59 -14 15 -46 52 -71 82 -25 30 -55 66 -67 80 -49 57 -70 81 -103 121 -19
24 -49 58 -67 76 -17 18 -29 33 -27 33 2 0 -4 8 -13 18 -10 10 -38 42 -63 72
-25 29 -49 58 -55 64 -5 6 -42 49 -82 96 -40 47 -83 99 -97 115 -14 17 -41 48
-58 69 -18 22 -48 55 -65 73 -18 19 -33 38 -33 42 0 3 -15 22 -33 41 -19 19
-60 67 -93 105 -83 99 -98 116 -109 129 -6 6 -46 54 -90 106 -44 52 -84 100
-90 106 -5 6 -29 33 -52 60 -40 48 -63 74 -106 124 -12 14 -46 54 -76 90 -30
36 -61 72 -70 82 -9 9 -26 29 -38 45 -12 16 -36 44 -53 61 -16 18 -30 34 -30
37 0 2 -13 19 -30 37 -88 97 -110 123 -110 133 0 5 13 24 28 41 15 18 72 85
127 149 55 64 110 129 123 144 12 14 26 31 30 36 4 6 34 41 67 80 33 38 65 76
70 83 6 7 17 21 26 30 9 9 56 64 104 122 96 114 119 141 150 174 11 12 36 42
55 67 19 24 46 56 60 71 14 15 39 43 55 63 17 21 35 42 40 49 6 6 48 56 95
111 47 55 87 102 90 105 3 3 27 32 55 65 27 33 52 62 55 65 7 7 101 118 126
149 10 13 30 36 44 50 14 15 41 47 61 72 20 24 45 54 55 65 11 12 37 43 59 69
22 26 47 55 55 65 8 10 33 39 55 66 22 26 54 64 71 84 37 41 151 175 209 244
22 27 49 58 60 70 11 13 36 43 56 67 21 24 48 56 60 71 55 61 111 128 132 155
12 15 33 40 47 55 14 14 35 40 48 56 12 16 37 45 55 65 17 19 41 45 51 58 41
51 120 144 130 154 6 6 29 33 51 60 22 28 44 55 50 61 5 6 30 34 55 64 25 29
54 61 64 71 11 11 17 19 13 19 -3 0 8 15 26 33 18 17 50 54 72 82 22 27 47 56
55 65 15 17 72 83 134 158 19 24 46 55 60 70 13 15 42 48 63 73 21 25 56 67
78 93 22 26 49 58 60 71 11 12 38 44 60 70 22 25 45 52 50 58 81 96 131 153
138 155 4 2 7 8 7 13 0 5 15 24 33 43 17 19 48 53 67 77 19 23 40 47 45 53 6
6 32 38 60 71 27 33 54 65 60 71 5 6 30 35 55 64 25 29 51 59 58 66 6 7 12 16
12 19 0 4 10 15 23 26 22 18 0 18 -1059 19 l-1082 0 -58 -67 c-33 -36 -70 -78
-84 -92 -14 -14 -56 -62 -95 -106 -38 -44 -77 -87 -85 -95 -8 -9 -46 -52 -85
-95 -38 -43 -83 -93 -100 -112 -26 -28 -71 -78 -160 -178 -11 -13 -51 -58 -90
-100 -76 -85 -75 -84 -155 -174 -30 -35 -66 -75 -80 -90 -14 -15 -56 -62 -95
-106 -38 -43 -85 -93 -102 -111 -18 -19 -33 -35 -33 -38 0 -4 -26 -33 -137
-153 -24 -25 -43 -48 -43 -50 0 -3 -24 -29 -54 -59 -30 -30 -52 -54 -50 -54 4
0 -50 -61 -116 -131 -25 -26 -65 -72 -90 -100 -25 -29 -52 -60 -60 -69 -8 -9
-51 -56 -94 -106 -44 -49 -89 -98 -100 -110 -12 -11 -45 -49 -75 -83 -30 -34
-70 -79 -90 -100 -20 -21 -50 -54 -66 -73 -47 -54 -155 -176 -207 -232 l-47
-50 0 1354 c0 745 -1 1361 -1 1368 0 9 -223 12 -1083 12 l-1082 0 0 -4785z"/>
</g>
</svg>
