<svg xmlns="http://www.w3.org/2000/svg" version="1.1" xmlns:xlink="http://www.w3.org/1999/xlink" width="200" height="200"><svg xmlns="http://www.w3.org/2000/svg" version="1.1" xmlns:xlink="http://www.w3.org/1999/xlink" viewBox="0 0 200 200"><rect width="200" height="200" fill="url('#gradient')"></rect><defs><linearGradient id="SvgjsLinearGradient1001" gradientTransform="rotate(45 0.5 0.5)"><stop offset="0%" stop-color="#ffffff"></stop><stop offset="100%" stop-color="#ffffff"></stop></linearGradient></defs><g><g fill="#d3d3d3" transform="matrix(5.866438648995297,0,0,5.866438648995297,25.08702327752532,141.70975444409623)" stroke="#f0f1f7" stroke-width="0.25"><path d="M3.16-8.34L3.16-8.34Q3.96-8.34 4.47-7.87Q4.98-7.40 4.98-6.69Q4.98-5.98 4.47-5.51Q3.96-5.04 3.16-5.04L3.16-5.04Q2.38-5.04 1.87-5.50Q1.35-5.97 1.35-6.69Q1.35-7.41 1.87-7.88Q2.38-8.34 3.16-8.34ZM15.35 0L12.32-5.29L10.92-3.75L10.92 0L7.49 0L7.49-14.22L10.92-14.22L10.92-7.95L12.11-9.76L15.18-14.22L19.41-14.22L14.61-7.93L19.41 0L15.35 0ZM22.37-8.34L22.37-8.34Q23.16-8.34 23.68-7.87Q24.19-7.40 24.19-6.69Q24.19-5.98 23.68-5.51Q23.16-5.04 22.37-5.04L22.37-5.04Q21.59-5.04 21.07-5.50Q20.56-5.97 20.56-6.69Q20.56-7.41 21.07-7.88Q21.59-8.34 22.37-8.34Z"></path></g></g></svg><style>@media (prefers-color-scheme: light) { :root { filter: none; } }
@media (prefers-color-scheme: dark) { :root { filter: none; } }
</style></svg>